<svg width="39" height="40" viewBox="0 0 39 40" fill="none" xmlns="http://www.w3.org/2000/svg"><path d="M18.8787 1.15981C19.174 0.84401 19.6749 0.84401 19.9701 1.15981L24.2542 5.74167C24.4171 5.91584 24.6533 6.00181 24.89 5.97307L31.117 5.21694C31.5462 5.16482 31.9299 5.48677 31.9531 5.91849L32.2897 12.1822C32.3025 12.4203 32.4282 12.638 32.628 12.7681L37.8842 16.1915C38.2465 16.4275 38.3335 16.9207 38.0737 17.2663L34.3054 22.281C34.1622 22.4716 34.1185 22.7192 34.1879 22.9473L36.0139 28.9484C36.1397 29.362 35.8893 29.7958 35.4682 29.8936L29.3581 31.3128C29.1258 31.3668 28.9333 31.5283 28.8398 31.7477L26.3811 37.5185C26.2117 37.9162 25.741 38.0875 25.3556 37.8918L19.7627 35.0515C19.5501 34.9435 19.2987 34.9435 19.0861 35.0515L13.4933 37.8918C13.1078 38.0875 12.6372 37.9162 12.4677 37.5185L10.009 31.7477C9.91557 31.5283 9.72301 31.3668 9.49075 31.3128L3.38067 29.8936C2.95955 29.7958 2.70912 29.362 2.83497 28.9484L4.66092 22.9473C4.73033 22.7192 4.68668 22.4716 4.54343 22.281L0.775107 17.2663C0.515383 16.9207 0.602358 16.4275 0.96463 16.1915L6.22082 12.7681C6.42062 12.638 6.5463 12.4203 6.5591 12.1822L6.89576 5.91849C6.91896 5.48677 7.30265 5.16482 7.73183 5.21694L13.9588 5.97307C14.1955 6.00181 14.4317 5.91584 14.5946 5.74167L18.8787 1.15981Z" fill="#F7D000"></path><path d="M13.4478 20.0001L17.9303 24.4827L25.4012 15.5176" stroke="black" stroke-width="1.49419" stroke-linecap="round" stroke-linejoin="round"></path></svg>