<svg xmlns="http://www.w3.org/2000/svg" width="29" height="28" viewBox="0 0 29 28" fill="none"><g clip-path="url(#clip0_5716_38717)"><path d="M0.5 10.1111H28.5V17.8889H0.5V10.1111Z" fill="#E00034"></path><path d="M25.3889 3.88892H3.61111C2.78599 3.88892 1.99467 4.21669 1.41122 4.80014C0.827777 5.38359 0.5 6.17491 0.5 7.00003L0.5 10.1111H28.5V7.00003C28.5 6.17491 28.1722 5.38359 27.5888 4.80014C27.0053 4.21669 26.214 3.88892 25.3889 3.88892Z" fill="#0098C3"></path><path d="M14.3788 16.5924C13.9468 16.5924 13.5216 16.4845 13.142 16.2785C12.7623 16.0724 12.4401 15.7747 12.2048 15.4125C11.9694 15.0502 11.8283 14.6349 11.7943 14.2043C11.7602 13.7736 11.8344 13.3413 12.0099 12.9466C12.1855 12.5519 12.4569 12.2073 12.7994 11.9442C13.142 11.681 13.545 11.5077 13.9716 11.4399C14.3982 11.3721 14.835 11.4119 15.2423 11.5559C15.6496 11.6998 16.0145 11.9432 16.3038 12.2641C15.9317 11.7109 15.3917 11.2919 14.7635 11.0689C14.1352 10.8458 13.4519 10.8304 12.8143 11.025C12.1767 11.2196 11.6184 11.6139 11.2218 12.1497C10.8252 12.6856 10.6112 13.3347 10.6113 14.0013C10.6115 14.668 10.8258 15.317 11.2226 15.8527C11.6195 16.3883 12.1779 16.7824 12.8156 16.9767C13.4534 17.171 14.1366 17.1553 14.7648 16.9319C15.3929 16.7086 15.9327 16.2894 16.3046 15.7361C16.0617 16.006 15.7647 16.2218 15.4329 16.3693C15.1011 16.5168 14.7419 16.5929 14.3788 16.5924Z" fill="white"></path><path d="M18.9077 13.9985L17.9774 13.6687L18.4006 12.7774L17.5092 13.2013L17.1779 12.2719L16.8481 13.2021L16.8458 13.2005L15.956 12.779L16.3807 13.6703L15.4504 14.0016L16.3807 14.3314L15.9576 15.2227L16.845 14.8004L16.8489 14.7989L17.1802 15.7283L17.51 14.7981L18.4021 15.2212L17.9774 14.3299L18.9077 13.9985Z" fill="white"></path><path d="M3.61111 24.1111H25.3889C26.214 24.1111 27.0053 23.7834 27.5888 23.1999C28.1722 22.6165 28.5 21.8251 28.5 21V17.8889H0.5V21C0.5 21.8251 0.827777 22.6165 1.41122 23.1999C1.99467 23.7834 2.78599 24.1111 3.61111 24.1111Z" fill="#00AE65"></path></g><defs><clipPath id="clip0_5716_38717"><rect width="28" height="28" fill="white" transform="translate(0.5)"></rect></clipPath></defs></svg>