<svg xmlns="http://www.w3.org/2000/svg" width="29" height="28" viewBox="0 0 29 28" fill="none"><g clip-path="url(#clip0_5716_38726)"><path d="M0.5 7.04592V10.1111H4.87733L0.5 7.04592ZM4.12756 24.1111H10.6111V19.5712L4.12756 24.1111ZM18.3889 19.572V24.1111H24.8717L18.3889 19.572ZM0.5 17.8889V20.9541L4.87889 17.8889H0.5ZM24.8732 3.88892H18.3889V8.4288L24.8732 3.88892ZM28.5 20.9549V17.8889H24.1203L28.5 20.9549ZM28.5 10.1111V7.04592L24.1219 10.1111H28.5ZM10.6111 3.88892H4.12756L10.6111 8.4288V3.88892Z" fill="#00247D"></path><path d="M20.0533 17.8889L27.6071 23.1786C27.976 22.7986 28.2411 22.3302 28.3771 21.8183L22.7654 17.8889H20.0533ZM10.6111 17.8889H8.94585L1.39285 23.1778C1.79807 23.5901 2.31763 23.8848 2.90018 24.0217L10.6111 18.6224V17.8889ZM18.3888 10.1112H20.0541L27.6071 4.82228C27.1949 4.40405 26.6725 4.11141 26.1005 3.97839L18.3888 9.37773V10.1112ZM8.94585 10.1112L1.39285 4.82228C1.02414 5.2026 0.758815 5.67087 0.62207 6.18262L6.23374 10.1112H8.94585Z" fill="#CF1B2B"></path><path d="M28.5 16.3334H16.8333V24.1111H18.3889V19.572L24.8717 24.1111H25.3889C25.8021 24.1112 26.2112 24.0287 26.5921 23.8686C26.973 23.7085 27.3181 23.4739 27.6071 23.1786L20.0533 17.8889H22.7654L28.3771 21.8182C28.4494 21.5561 28.5 21.2847 28.5 21V20.9549L24.1203 17.8889H28.5V16.3334ZM0.5 16.3334V17.8889H4.87889L0.5 20.9541V21C0.5 21.8486 0.841444 22.6162 1.39289 23.1778L8.94589 17.8889H10.6111V18.6224L2.90022 24.0209C3.12889 24.0754 3.36533 24.1111 3.61111 24.1111H4.12756L10.6111 19.5712V24.1111H12.1667V16.3334H0.5ZM28.5 7.00003C28.5005 6.1849 28.1797 5.40244 27.6071 4.82225L20.0541 10.1111H18.3889V9.37769L26.1006 3.97836C25.8676 3.92122 25.6288 3.8912 25.3889 3.88892H24.8732L18.3889 8.4288V3.88892H16.8333V11.6667H28.5V10.1111H24.1219L28.5 7.04592V7.00003ZM10.6111 3.88892V8.4288L4.12756 3.88892H3.61111C3.19782 3.88874 2.78866 3.97122 2.40772 4.1315C2.02677 4.29179 1.68173 4.52664 1.39289 4.82225L8.94589 10.1111H6.23378L0.622111 6.18258C0.54494 6.44836 0.503868 6.7233 0.5 7.00003L0.5 7.04592L4.87733 10.1111H0.5V11.6667H12.1667V3.88892H10.6111Z" fill="#EEEEEE"></path><path d="M16.8333 11.6667V3.88892H12.1667V11.6667H0.5V16.3334H12.1667V24.1111H16.8333V16.3334H28.5V11.6667H16.8333Z" fill="#CF1B2B"></path></g><defs><clipPath id="clip0_5716_38726"><rect width="28" height="28" fill="white" transform="translate(0.5)"></rect></clipPath></defs></svg>