<svg width="24" height="24" viewBox="0 0 24 24" fill="none" xmlns="http://www.w3.org/2000/svg"><path d="M7.18066 3.00002C7.1804 3.53046 6.96943 4.03906 6.59417 4.41394C6.21891 4.78883 5.7101 4.99929 5.17966 4.99902C4.64923 4.99876 4.14063 4.78779 3.76574 4.41253C3.39086 4.03727 3.1804 3.52846 3.18066 2.99802C3.18093 2.46759 3.3919 1.95899 3.76716 1.5841C4.14242 1.20922 4.65123 0.998758 5.18166 0.999024C5.7121 0.999289 6.2207 1.21026 6.59559 1.58552C6.97047 1.96078 7.18093 2.46959 7.18066 3.00002ZM7.24066 6.48002H3.24066V19H7.24066V6.48002ZM13.5607 6.48002H9.58066V19H13.5207V12.43C13.5207 8.77002 18.2907 8.43002 18.2907 12.43V19H22.2407V11.07C22.2407 4.90002 15.1807 5.13002 13.5207 8.16002L13.5607 6.48002Z" fill="black"></path></svg>