<svg width="24" height="24" viewBox="0 0 24 24" fill="none" xmlns="http://www.w3.org/2000/svg"><path d="M8.04121 1H16.4412C19.6412 1 22.2412 3.6 22.2412 6.8V15.2C22.2412 16.7383 21.6301 18.2135 20.5424 19.3012C19.4547 20.3889 17.9795 21 16.4412 21H8.04121C4.84121 21 2.24121 18.4 2.24121 15.2V6.8C2.24121 5.26174 2.85228 3.78649 3.93999 2.69878C5.0277 1.61107 6.50295 1 8.04121 1ZM7.84121 3C6.88643 3 5.97076 3.37928 5.29563 4.05442C4.6205 4.72955 4.24121 5.64522 4.24121 6.6V15.4C4.24121 17.39 5.85121 19 7.84121 19H16.6412C17.596 19 18.5117 18.6207 19.1868 17.9456C19.8619 17.2705 20.2412 16.3548 20.2412 15.4V6.6C20.2412 4.61 18.6312 3 16.6412 3H7.84121ZM17.4912 4.5C17.8227 4.5 18.1407 4.6317 18.3751 4.86612C18.6095 5.10054 18.7412 5.41848 18.7412 5.75C18.7412 6.08152 18.6095 6.39946 18.3751 6.63388C18.1407 6.8683 17.8227 7 17.4912 7C17.1597 7 16.8417 6.8683 16.6073 6.63388C16.3729 6.39946 16.2412 6.08152 16.2412 5.75C16.2412 5.41848 16.3729 5.10054 16.6073 4.86612C16.8417 4.6317 17.1597 4.5 17.4912 4.5ZM12.2412 6C13.5673 6 14.8391 6.52678 15.7767 7.46447C16.7144 8.40215 17.2412 9.67392 17.2412 11C17.2412 12.3261 16.7144 13.5979 15.7767 14.5355C14.8391 15.4732 13.5673 16 12.2412 16C10.9151 16 9.64336 15.4732 8.70568 14.5355C7.76799 13.5979 7.24121 12.3261 7.24121 11C7.24121 9.67392 7.76799 8.40215 8.70568 7.46447C9.64336 6.52678 10.9151 6 12.2412 6ZM12.2412 8C11.4456 8 10.6825 8.31607 10.1199 8.87868C9.55728 9.44129 9.24121 10.2043 9.24121 11C9.24121 11.7956 9.55728 12.5587 10.1199 13.1213C10.6825 13.6839 11.4456 14 12.2412 14C13.0369 14 13.7999 13.6839 14.3625 13.1213C14.9251 12.5587 15.2412 11.7956 15.2412 11C15.2412 10.2043 14.9251 9.44129 14.3625 8.87868C13.7999 8.31607 13.0369 8 12.2412 8Z" fill="black"></path></svg>