<svg width="24" height="24" viewBox="0 0 24 24" fill="none" xmlns="http://www.w3.org/2000/svg"><path d="M16.8414 3.82C16.1578 3.03962 15.7811 2.03743 15.7814 1H12.6914V13.4C12.6675 14.071 12.3842 14.7066 11.9011 15.1729C11.418 15.6393 10.7728 15.8999 10.1014 15.9C8.68137 15.9 7.50137 14.74 7.50137 13.3C7.50137 11.58 9.16137 10.29 10.8714 10.82V7.66C7.42137 7.2 4.40137 9.88 4.40137 13.3C4.40137 16.63 7.16137 19 10.0914 19C13.2314 19 15.7814 16.45 15.7814 13.3V7.01C17.0344 7.90985 18.5387 8.39265 20.0814 8.39V5.3C20.0814 5.3 18.2014 5.39 16.8414 3.82Z" fill="black"></path></svg>